PathFileType	4	(X/Y/Z)	Patient4_TMGait_0pt2_03_right_16.trc.trc
DataRate	CameraRate	NumFrames	NumMarkers	Units	OrigDataRate	OrigDataStartFrame	OrigNumFrames
48.780487804878	48.780487804878	4	33	mm	48.780487804878	71	       141
Frame#	Time	Sacral			L.Shoulder			Chest			R.Shoulder			Neck			R.ASIS			L.ASIS			R.Thigh.Superior			R.Thigh.Lateral			R.Thigh.Inferior			R.Patella			L.Thigh.Superior			L.Thigh.Lateral			L.Thigh.Inferior			L.Patella			L.Shank.Superior			L.Shank.Lateral			L.Shank.Inferior			R.Shank.Superior			R.Shank.Lateral			R.Shank.Inferior			R.Heel			R.Midfoot.Superior			R.Midfoot.Lateral			R.Toe			L.Heel			L.Midfoot.Lateral			L.Midfoot.Superior			L.Toe			L.Elbow			L.Wrist			R.Elbow			R.Wrist			
		X1	Y1	Z1	X2	Y2	Z2	X3	Y3	Z3	X4	Y4	Z4	X5	Y5	Z5	X6	Y6	Z6	X7	Y7	Z7	X8	Y8	Z8	X9	Y9	Z9	X10	Y10	Z10	X11	Y11	Z11	X12	Y12	Z12	X13	Y13	Z13	X14	Y14	Z14	X15	Y15	Z15	X16	Y16	Z16	X17	Y17	Z17	X18	Y18	Z18	X19	Y19	Z19	X20	Y20	Z20	X21	Y21	Z21	X22	Y22	Z22	X23	Y23	Z23	X24	Y24	Z24	X25	Y25	Z25	X26	Y26	Z26	X27	Y27	Z27	X28	Y28	Z28	X29	Y29	Z29	X30	Y30	Z30	X31	Y31	Z31	X32	Y32	Z32	X33	Y33	Z33	

71	35.845000000000	797.416735768995	1007.562287566469	614.239026879608	909.352723576613	1440.762465775405	409.685085613373	1054.173501578999	1371.030354277340	533.337749317402	1020.579597082661	1436.276329247557	724.999860486476	923.191482501252	1494.891829447553	570.193769599994	1043.997128426533	934.719934994985	670.577813544979	967.401459532672	969.819867705151	409.077960892443	1045.160925422174	724.518600689021	629.706203744438	958.931219210339	621.055747704319	700.858804357220	1008.991215430586	564.810557666957	607.491859973189	994.472247792276	478.778062935230	611.440339900682	1032.079970368031	766.036983349792	417.921899026411	946.240475384946	633.774959337250	349.736985771696	1057.157304533521	576.837201755374	394.195875509769	1071.814558462489	512.901362699276	389.967884285533	1057.368779993197	442.460837430305	375.387832886899	986.564625228796	316.392311223782	320.899075615033	1075.968956914613	212.983233287626	363.213375236312	957.200886551572	393.392911702115	617.351927312029	881.211945557247	294.633571367852	683.401695098174	900.624042234402	200.617970762207	608.759237812861	746.348356901402	45.006122319283	582.557081621430	920.343495978790	95.596503524710	609.869062540155	833.340695465060	36.700132216226	652.434169078542	1040.969031966656	41.150871019413	630.526381598069	987.070317299864	40.452038584658	397.938843290760	1057.704936828312	41.030826871761	314.915130203753	1136.081715228337	111.383417745839	334.260545774553	1265.125543597893	71.482837099390	301.411206062709	750.166528599493	1129.062464973367	326.268436311522	706.082270357268	872.805433480338	366.795031206298	1239.684313122272	1172.418652803464	810.704594847813	1430.313372491593	1285.865486251797	686.252938334256	
72	35.865500000000	797.430435152147	1006.477425403610	612.620548851032	908.827308827327	1439.658517247990	407.131720461138	1053.800680164492	1370.156302415801	530.827330312316	1020.117255432044	1435.416107735891	722.389043530358	922.655839516052	1494.022419543928	567.677496061791	1044.403591984676	934.611171645662	669.032294782123	967.393445484515	968.250597379346	407.504361262138	1045.314832063494	724.158823047349	628.836134026097	958.420797955172	620.848292550099	700.004890296726	1008.213425020339	564.315475457621	606.867893021359	993.142513805974	478.098574750861	610.891342509887	1031.566823069980	763.506294959187	416.672626215350	943.901929828849	631.425810167809	350.000686256301	1054.918110725859	574.473001273529	394.055004989978	1068.316427916073	510.555369954077	390.474933663915	1054.631176967298	440.180087497527	375.749937548568	983.912132134152	313.962763550798	321.844869487092	1073.472556681212	210.815326056558	364.153248189304	955.257963917302	392.923573120289	616.894554759750	878.671981970755	294.763728806223	683.258446554940	897.457351695040	200.515913088375	608.716660176541	742.288935019909	45.333374465450	582.677564506176	916.399310145478	95.634076916167	609.944148526664	829.283271904535	36.776065275535	652.460705056477	1036.911209888424	40.923903697157	630.561353055403	984.192387611562	39.590804510760	399.500290740329	1054.535153178891	39.774408790439	316.188997568665	1133.866260515330	108.792252041952	335.742195942882	1262.303367605833	67.269018466005	302.238672331560	751.480882786438	1126.872238312847	323.454529903920	708.313725530877	870.434062743183	363.301970520746	1241.068159514874	1172.880868098491	805.801816282011	1425.205800540474	1294.251413502787	679.894083874070	
73	35.886000000000	797.473742104224	1005.544829817093	610.706588725216	908.450446253414	1438.578295652454	404.193833159432	1053.498482967365	1369.403868300040	528.066557030924	1019.609090464723	1434.793414429260	719.483744203925	922.178953136456	1493.276203051577	564.745432395017	1044.776056300980	934.592975121601	667.387961762672	967.594368325038	966.823359569276	405.788981457901	1045.466155102833	723.848666919089	627.815887089895	957.908188799337	620.707809219051	698.981810923279	1007.455585487078	563.880804447103	606.069389201305	991.837480092340	477.475148374827	610.167283638352	1031.539465919331	761.294964117070	415.380274985360	942.387226283443	629.399573644814	349.904413465777	1053.443383855619	572.409632672255	393.779622253719	1065.704131920104	508.435857737507	390.754838026615	1052.515865133880	438.064908870299	375.927268786833	981.520942988548	311.943866839820	322.417753401718	1070.759564986141	208.714728952774	364.902061847562	953.339104601763	392.517029679872	616.310504271285	876.163271504531	294.984722464896	683.019224040956	894.315425311296	200.478235591918	608.624852818709	738.244559730074	45.760179712866	582.819482112672	912.488641735583	95.693805048660	610.021244630829	825.243037435839	36.901008542910	652.499670592786	1032.862301356395	40.693788781590	630.594767754831	980.422787590056	39.016018826831	400.695527413873	1050.569735672195	38.702022569257	317.170543190987	1130.978503658151	106.229878013798	337.076773837110	1258.795320487556	62.839925717796	303.039315894706	752.953552041363	1124.762297151443	320.109515232951	710.849789326008	868.112381295469	359.201830889114	1241.825643076691	1173.089520501649	801.080545673289	1420.464778816168	1300.439542677908	674.010177047036	
74	35.906500000000	797.505842258717	1004.839140367626	608.500361636553	908.242802105624	1437.579367051505	400.914692552516	1053.292989143950	1368.799091521770	525.072511671126	1019.121518244003	1434.441756615400	716.308415598712	921.801640557646	1492.697154257838	561.437587012972	1045.055397018924	934.653286238542	665.611697798022	967.933877912383	965.617467920856	403.907811544640	1045.513847328920	723.593391077557	626.606849160696	957.318267868248	620.654019162274	697.772801898752	1006.646387827043	563.517759970751	605.081203357731	990.497819262898	476.932963876249	609.268447912728	1031.925422177619	759.523235320219	413.983952672446	941.697828688895	627.780995628517	349.377911516700	1052.744960351292	570.746458434297	393.286985325677	1064.044297912860	506.647037298993	390.731864957455	1051.085382622922	436.220235415058	375.865294878915	979.523495547859	310.401111557909	322.555692484775	1068.009131443335	206.798635444941	365.428980842180	951.402034207447	392.197705866884	615.601528511266	873.646029051817	295.313870337237	682.677221175199	891.180654195831	200.519247380214	608.482566878213	734.217869899182	46.298088816334	582.979540221362	908.615470232788	95.780013364326	610.103904677003	821.221270919358	37.085457844576	652.551339591467	1028.822183283679	40.463140396874	630.626635427568	976.099348680134	38.674854760633	401.513083595594	1046.143040776035	37.838589035175	317.848553009103	1127.615501663653	103.898634247816	338.197699540963	1254.865967673997	58.638719931899	303.768757266004	754.542380093183	1122.827145710681	316.283252989441	713.631269572600	865.937386394105	354.570352338909	1242.049210593539	1173.132980130065	796.631673278029	1416.318781905743	1304.650977791982	668.590630790280	
